G04*
G04 #@! TF.GenerationSoftware,Altium Limited,Altium Designer,25.8.1 (18)*
G04*
G04 Layer_Color=16711935*
%FSLAX44Y44*%
%MOMM*%
G71*
G04*
G04 #@! TF.SameCoordinates,B1ADE350-9C31-4B71-9BD7-2A4FB26991A5*
G04*
G04*
G04 #@! TF.FilePolarity,Negative*
G04*
G01*
G75*
%ADD28R,1.7332X1.7332*%
%ADD29C,1.7332*%
%ADD30R,1.8082X1.8082*%
%ADD31C,1.8082*%
%ADD32C,3.2032*%
%ADD33C,1.7272*%
%ADD34C,1.7532*%
%ADD35C,1.5700*%
%ADD36C,1.8532*%
G04:AMPARAMS|DCode=37|XSize=1.8532mm|YSize=1.8532mm|CornerRadius=0.5141mm|HoleSize=0mm|Usage=FLASHONLY|Rotation=0.000|XOffset=0mm|YOffset=0mm|HoleType=Round|Shape=RoundedRectangle|*
%AMROUNDEDRECTD37*
21,1,1.8532,0.8250,0,0,0.0*
21,1,0.8250,1.8532,0,0,0.0*
1,1,1.0282,0.4125,-0.4125*
1,1,1.0282,-0.4125,-0.4125*
1,1,1.0282,-0.4125,0.4125*
1,1,1.0282,0.4125,0.4125*
%
%ADD37ROUNDEDRECTD37*%
%ADD38R,1.7532X1.7532*%
%ADD39R,1.7532X1.7532*%
%ADD40C,2.2032*%
%ADD41R,1.5700X1.5700*%
%ADD42C,3.9032*%
%ADD43C,0.8032*%
%ADD63C,0.5032*%
D28*
X908050Y660440D02*
D03*
X298450D02*
D03*
D29*
X908050Y203240D02*
D03*
X882650Y660440D02*
D03*
X908050Y635040D02*
D03*
X882650D02*
D03*
X908050Y609640D02*
D03*
X882650D02*
D03*
X908050Y584240D02*
D03*
X882650D02*
D03*
X908050Y558840D02*
D03*
X882650D02*
D03*
X908050Y533440D02*
D03*
X882650D02*
D03*
X908050Y508040D02*
D03*
X882650D02*
D03*
X908050Y482640D02*
D03*
X882650D02*
D03*
X908050Y457240D02*
D03*
X882650D02*
D03*
X908050Y431840D02*
D03*
X882650D02*
D03*
X908050Y406440D02*
D03*
X882650D02*
D03*
X908050Y381040D02*
D03*
X882650D02*
D03*
X908050Y355640D02*
D03*
X882650D02*
D03*
X908050Y330240D02*
D03*
X882650D02*
D03*
X908050Y304840D02*
D03*
X882650D02*
D03*
X908050Y279440D02*
D03*
X882650D02*
D03*
X908050Y254040D02*
D03*
X882650D02*
D03*
X908050Y228640D02*
D03*
X882650D02*
D03*
Y203240D02*
D03*
X298450D02*
D03*
X273050Y660440D02*
D03*
X298450Y635040D02*
D03*
X273050D02*
D03*
X298450Y609640D02*
D03*
X273050D02*
D03*
X298450Y584240D02*
D03*
X273050D02*
D03*
X298450Y558840D02*
D03*
X273050D02*
D03*
X298450Y533440D02*
D03*
X273050D02*
D03*
X298450Y508040D02*
D03*
X273050D02*
D03*
X298450Y482640D02*
D03*
X273050D02*
D03*
X298450Y457240D02*
D03*
X273050D02*
D03*
X298450Y431840D02*
D03*
X273050D02*
D03*
X298450Y406440D02*
D03*
X273050D02*
D03*
X298450Y381040D02*
D03*
X273050D02*
D03*
X298450Y355640D02*
D03*
X273050D02*
D03*
X298450Y330240D02*
D03*
X273050D02*
D03*
X298450Y304840D02*
D03*
X273050D02*
D03*
X298450Y279440D02*
D03*
X273050D02*
D03*
X298450Y254040D02*
D03*
X273050D02*
D03*
X298450Y228640D02*
D03*
X273050D02*
D03*
Y203240D02*
D03*
D30*
X831850Y558840D02*
D03*
X349250Y203240D02*
D03*
X831850Y330240D02*
D03*
X349250Y421640D02*
D03*
D31*
X831850Y533440D02*
D03*
Y508040D02*
D03*
Y482640D02*
D03*
Y457240D02*
D03*
Y431840D02*
D03*
Y406440D02*
D03*
Y381040D02*
D03*
X349250Y228640D02*
D03*
Y254040D02*
D03*
Y279440D02*
D03*
Y304840D02*
D03*
Y330240D02*
D03*
Y355640D02*
D03*
Y381040D02*
D03*
X831850Y304840D02*
D03*
Y279440D02*
D03*
Y254040D02*
D03*
Y228640D02*
D03*
Y203240D02*
D03*
X349250Y447040D02*
D03*
Y472440D02*
D03*
Y497840D02*
D03*
Y523240D02*
D03*
Y548640D02*
D03*
Y574040D02*
D03*
Y599440D02*
D03*
Y624840D02*
D03*
Y650240D02*
D03*
D32*
X501650Y177840D02*
D03*
X349250Y685840D02*
D03*
X831850Y698540D02*
D03*
D33*
X882650Y431840D02*
D03*
X158750Y651510D02*
D03*
X104140Y673100D02*
D03*
D34*
X737870Y128270D02*
D03*
X262890Y130810D02*
D03*
X186690D02*
D03*
X113490Y840470D02*
D03*
Y785670D02*
D03*
X161290Y130810D02*
D03*
X237490D02*
D03*
X737870Y77470D02*
D03*
X212090Y130810D02*
D03*
X737870Y102870D02*
D03*
X113490Y867870D02*
D03*
Y813070D02*
D03*
X85090Y826770D02*
D03*
Y854170D02*
D03*
Y881570D02*
D03*
Y799370D02*
D03*
D35*
X797560Y39370D02*
D03*
X822960D02*
D03*
X949960D02*
D03*
X924560D02*
D03*
X899160D02*
D03*
X873760D02*
D03*
X848360D02*
D03*
D36*
X512700Y46750D02*
D03*
X334900D02*
D03*
X588900D02*
D03*
X487300D02*
D03*
X385700D02*
D03*
X563500D02*
D03*
X360300D02*
D03*
X639700D02*
D03*
X538100D02*
D03*
X436500D02*
D03*
X461900D02*
D03*
X614300D02*
D03*
X411100D02*
D03*
D37*
X665100D02*
D03*
D38*
X737870Y52070D02*
D03*
X113490Y895270D02*
D03*
D39*
X288290Y130810D02*
D03*
D40*
X29470Y595620D02*
D03*
Y198120D02*
D03*
X204470Y595620D02*
D03*
Y198120D02*
D03*
D41*
X975360Y39370D02*
D03*
D42*
X99290Y965370D02*
D03*
Y715470D02*
D03*
D43*
X648970Y402590D02*
D03*
X565150Y293370D02*
D03*
X635000Y257810D02*
D03*
X795020Y99060D02*
D03*
X241300Y925830D02*
D03*
X262890Y88900D02*
D03*
X62230Y180340D02*
D03*
X173990Y74930D02*
D03*
X542290Y124460D02*
D03*
X186690Y88900D02*
D03*
X372110Y458470D02*
D03*
X273050Y279440D02*
D03*
X222250Y279400D02*
D03*
X736600Y462280D02*
D03*
X685800Y259080D02*
D03*
X490060Y598170D02*
D03*
X414090Y533440D02*
D03*
X511810Y331470D02*
D03*
X288290Y130810D02*
D03*
X737870Y52070D02*
D03*
X949960Y39370D02*
D03*
X822960D02*
D03*
X609720Y129540D02*
D03*
X335280Y90050D02*
D03*
X360300Y46750D02*
D03*
X279400Y68580D02*
D03*
X215900Y984250D02*
D03*
X186690Y830580D02*
D03*
X173990Y880110D02*
D03*
X140970Y839470D02*
D03*
X179070Y739140D02*
D03*
X30950Y633730D02*
D03*
X29470Y595620D02*
D03*
Y198120D02*
D03*
X852170Y113030D02*
D03*
X328930Y187960D02*
D03*
X375920Y241300D02*
D03*
X300990Y184150D02*
D03*
X882650Y228640D02*
D03*
X814070Y209550D02*
D03*
X682900Y65680D02*
D03*
X924560Y102760D02*
D03*
D63*
X248285Y219075D02*
Y525207D01*
X268208Y545130D01*
M02*
