M48
;Layer_Color=9474304
;FILE_FORMAT=4:4
METRIC,LZ
;TYPE=PLATED
T01F00S00C0.3000
T02F00S00C0.7620
T03F00S00C1.0000
T04F00S00C1.0200
T05F00S00C1.0400
T06F00S00C1.0700
T07F00S00C1.1000
T08F00S00C3.1700
;TYPE=NON_PLATED
T09F00S00C3.0000
%
T01
X0017399Y0007493
X0018669Y000889
X0026289
X002794Y0006858
X0033528Y0009005
X0054229Y0012446
X0060972Y0012954
X006829Y0006568
X0079502Y0009906
X0085217Y0011303
X0092456Y0010276
X0081407Y0020955
X006858Y0025908
X00635Y0025781
X0056515Y0029337
X0064897Y0040259
X007366Y0046228
X0051181Y0033147
X0037592Y002413
X0032893Y0018796
X0030099Y0018415
X0022225Y002794
X0037211Y0045847
X0041409Y0053344
X0006223Y0018034
X0003095Y0063373
X0014097Y0083947
X0018669Y0083058
X0017399Y0088011
X002413Y0092583
X0017907Y0073914
X0049006Y0059817
X002159Y0098425
T02
X0010414Y006731
X0015875Y0065151
T03
X0020447Y0019812
X0002947
Y0059562
X0020447
T04
X0016129Y0013081
X0018669
X0021209
X0023749
X0026289
X0028829
X0073787Y0012827
Y0010287
Y0007747
Y0005207
X0079756Y0003937
X0082296
X0084836
X0087376
X0089916
X0092456
X0094996
X0097536
X0090805Y0020324
Y0022864
Y0025404
Y0027944
Y0030484
Y0033024
Y0035564
Y0038104
Y0040644
Y0043184
Y0045724
Y0048264
Y0050804
Y0053344
X0088265
Y0050804
Y0048264
Y0045724
Y0043184
Y0040644
Y0038104
Y0035564
Y0033024
Y0030484
Y0027944
Y0025404
Y0022864
Y0020324
X0029845
Y0022864
Y0025404
Y0027944
Y0030484
Y0033024
Y0035564
Y0038104
Y0040644
Y0043184
Y0045724
Y0048264
Y0050804
Y0053344
X0027305
Y0050804
Y0048264
Y0045724
Y0043184
Y0040644
Y0038104
Y0035564
Y0033024
Y0030484
Y0027944
Y0025404
Y0022864
Y0020324
Y0055884
Y0058424
Y0060964
Y0063504
Y0066044
X0029845
Y0063504
Y0060964
Y0058424
Y0055884
X0088265
Y0058424
Y0060964
Y0063504
Y0066044
X0090805
Y0063504
Y0060964
Y0058424
Y0055884
T05
X0008509Y0079937
Y0082677
Y0085417
Y0088157
X0011349Y0086787
Y0084047
Y0081307
Y0078567
Y0089527
T06
X0083185Y0020324
Y0022864
Y0025404
Y0027944
Y0030484
Y0033024
Y0038104
Y0040644
Y0043184
Y0045724
Y0048264
Y0050804
Y0053344
X0034925Y0052324
Y0049784
Y0047244
Y0044704
Y0042164
Y0038104
Y0035564
Y0033024
Y0030484
Y0027944
Y0025404
Y0022864
Y0020324
Y0054864
Y0057404
Y0059944
Y0062484
Y0065024
X0083185Y0055884
T07
X003349Y0004675
X003603
X003857
X004111
X004365
X004619
X004873
X005127
X005381
X005635
X005889
X006143
X006397
X006651
T08
X0009929Y0071547
Y0096537
T09
X0050165Y0017784
X0034925Y0068584
X0083185Y0069854
M30
