G04*
G04 #@! TF.GenerationSoftware,Altium Limited,Altium Designer,25.8.1 (18)*
G04*
G04 Layer_Color=32896*
%FSLAX44Y44*%
%MOMM*%
G71*
G04*
G04 #@! TF.SameCoordinates,B1ADE350-9C31-4B71-9BD7-2A4FB26991A5*
G04*
G04*
G04 #@! TF.FilePolarity,Positive*
G04*
G01*
G75*
%ADD11C,0.2000*%
%ADD64C,0.1270*%
D11*
X850350Y558840D02*
G03*
X850350Y558840I-1000J0D01*
G01*
X332750Y203240D02*
G03*
X332750Y203240I-1000J0D01*
G01*
X850350Y330240D02*
G03*
X850350Y330240I-1000J0D01*
G01*
X332750Y421640D02*
G03*
X332750Y421640I-1000J0D01*
G01*
X926550Y660440D02*
G03*
X926550Y660440I-1000J0D01*
G01*
X316950D02*
G03*
X316950Y660440I-1000J0D01*
G01*
D64*
X940550Y962840D02*
G03*
X925550Y977840I-15000J0D01*
G01*
X255550D02*
G03*
X240550Y962840I0J-15000D01*
G01*
Y187840D02*
G03*
X255550Y172840I15000J0D01*
G01*
X925550D02*
G03*
X940550Y187840I0J15000D01*
G01*
X940550D02*
Y962840D01*
X255550Y977840D02*
X925550D01*
X240550Y187840D02*
Y962840D01*
X255550Y172840D02*
X460550D01*
X480550Y152840D01*
X810550D01*
X830550Y172840D01*
X925550D01*
X844350Y365840D02*
Y574040D01*
X819350Y365840D02*
X844350D01*
X819350D02*
Y574040D01*
X844350D01*
X336750Y188040D02*
Y396240D01*
X361750D01*
Y188040D02*
Y396240D01*
X336750Y188040D02*
X361750D01*
X844350D02*
Y345440D01*
X819350Y188040D02*
X844350D01*
X819350D02*
Y345440D01*
X844350D01*
X336750Y406440D02*
Y665440D01*
X361750D01*
Y406440D02*
Y665440D01*
X336750Y406440D02*
X361750D01*
X310750Y190540D02*
Y673140D01*
X260750Y190540D02*
X310750D01*
X260750D02*
Y673140D01*
X310750D01*
X920350Y190540D02*
Y673140D01*
X870350Y190540D02*
X920350D01*
X870350D02*
Y673140D01*
X920350D01*
M02*
