M48
;Layer_Color=9474304
;FILE_FORMAT=4:2
METRIC,LZ
;TYPE=PLATED
T01F00S00C0.30
T02F00S00C0.76
T03F00S00C1.00
T04F00S00C1.02
T05F00S00C1.04
T06F00S00C1.07
T07F00S00C1.10
T08F00S00C3.17
T09F00S00C5.00
;TYPE=NON_PLATED
T10F00S00C3.00
%
T01
X00174Y000749
X001867Y000889
X002629
X002792Y000593
X003353Y000901
X005423Y001245
X006097Y001295
X006829Y000657
X00795Y000991
X008522Y00113
X008731Y001029
X009271
X008141Y002095
X006972Y002591
X006579Y002578
X005651Y002934
X00649Y004026
X007366Y004623
X005118Y003315
X003759Y002413
X003289Y00188
X00301Y001842
X002223Y002794
X003721Y004585
X004141Y005334
X000622Y001803
X00031Y006337
X001791Y007391
X001867Y008306
X00174Y008801
X002413Y009258
X003213Y008966
X004901Y005982
T02
X001588Y006515
T03
X002045Y001981
X000295
Y005956
X002045
T04
X001613Y001308
X001867
X002121
X002375
X002629
X002883
X007442Y001422
Y001168
Y000914
Y00066
X007976Y000394
X00823
X008484
X008738
X008992
X009246
X0095
X009754
X009081Y002032
X008826
Y002286
Y00254
X009081
Y002286
Y002794
X008826
Y003048
Y003302
X009081
Y003048
Y003556
X008826
Y00381
X009081
Y004064
X008826
Y004318
X009081
Y004572
X008826
Y004826
X009081
Y00508
X008826
Y005334
X009081
X002984
Y00508
Y004826
Y004572
Y004318
Y004064
Y00381
Y003556
Y003302
Y003048
Y002794
Y00254
Y002286
X002731
Y002032
X002984
X002731Y00254
Y002794
Y003048
Y003302
Y003556
Y00381
Y004064
Y004318
Y004572
Y004826
Y00508
Y005334
Y005588
X002984
Y005842
Y006096
X002731
Y005842
Y00635
X002984
Y006604
X002731
X008826
Y00635
Y006096
Y005842
Y005588
X009081
Y005842
Y006096
Y00635
Y006604
T05
X000851Y007994
Y008268
Y008542
Y008816
X001135Y008953
Y008679
Y008405
Y008131
Y007857
T06
X008318Y002032
Y002286
Y00254
Y002794
Y003048
Y003302
Y00381
Y004064
Y004318
Y004572
Y004826
Y00508
Y005334
X003492Y005232
Y004978
Y004724
Y00447
Y004216
Y00381
Y003556
Y003302
Y003048
Y002794
Y00254
Y002286
Y002032
Y005486
Y00574
Y005994
Y006248
Y006502
X008318Y005588
T07
X003349Y000468
X003603
X003857
X004111
X004365
X004619
X004873
X005127
X005381
X005635
X005889
X006143
X006397
X006651
T08
X000993Y007155
Y009654
T09
X003835Y008433
X005093Y00936
T10
X005017Y001778
X003492Y006858
X008318Y006985
M30
