G04*
G04 #@! TF.GenerationSoftware,Altium Limited,Altium Designer,25.8.1 (18)*
G04*
G04 Layer_Physical_Order=2*
G04 Layer_Color=15441517*
%FSLAX44Y44*%
%MOMM*%
G71*
G04*
G04 #@! TF.SameCoordinates,774A44D5-1D39-439F-A150-2D3F1A80F4B5*
G04*
G04*
G04 #@! TF.FilePolarity,Positive*
G04*
G01*
G75*
%ADD30C,1.5700*%
%ADD36R,1.5700X1.5700*%
%ADD46C,0.3000*%
%ADD47C,0.5000*%
%ADD48C,1.5300*%
%ADD49C,2.0000*%
%ADD50C,1.5500*%
%ADD51C,1.6500*%
%ADD52C,1.6050*%
%ADD53C,1.5240*%
%ADD54R,1.5500X1.5500*%
%ADD55R,1.5500X1.5500*%
%ADD56C,3.0000*%
%ADD57R,1.6050X1.6050*%
%ADD58R,1.5300X1.5300*%
G04:AMPARAMS|DCode=59|XSize=1.65mm|YSize=1.65mm|CornerRadius=0.4125mm|HoleSize=0mm|Usage=FLASHONLY|Rotation=0.000|XOffset=0mm|YOffset=0mm|HoleType=Round|Shape=RoundedRectangle|*
%AMROUNDEDRECTD59*
21,1,1.6500,0.8250,0,0,0.0*
21,1,0.8250,1.6500,0,0,0.0*
1,1,0.8250,0.4125,-0.4125*
1,1,0.8250,-0.4125,-0.4125*
1,1,0.8250,-0.4125,0.4125*
1,1,0.8250,0.4125,0.4125*
%
%ADD59ROUNDEDRECTD59*%
%ADD60C,3.7000*%
%ADD61C,0.6000*%
D30*
X797560Y39370D02*
D03*
X822960D02*
D03*
X949960D02*
D03*
X848360D02*
D03*
X873760D02*
D03*
X924560D02*
D03*
X899160D02*
D03*
D36*
X975360D02*
D03*
D46*
X486591Y166189D02*
G03*
X489999Y162781I15059J11651D01*
G01*
X248285Y525207D02*
X268208Y545130D01*
X248285Y219075D02*
Y525207D01*
X795020Y99060D02*
X797560Y96520D01*
X715920Y65680D02*
X728980Y78740D01*
X760730D01*
X682900Y65680D02*
X715920D01*
X760730Y78740D02*
X814070Y132080D01*
Y209550D01*
X744220Y116840D02*
X751840D01*
X744220Y91440D02*
X751840D01*
X843915Y266105D02*
X882650Y304840D01*
X789097Y128697D02*
Y228350D01*
X751840Y91440D02*
X789097Y128697D01*
X826852Y266105D02*
X843915D01*
X789097Y228350D02*
X826852Y266105D01*
Y291505D02*
X843915D01*
X882650Y330240D01*
X770890Y235543D02*
X826852Y291505D01*
X770890Y135890D02*
Y235543D01*
X751840Y116840D02*
X770890Y135890D01*
X858520Y102870D02*
X873125D01*
X847090Y91440D02*
X858520Y102870D01*
X298450Y457240D02*
X300315Y459105D01*
X370663D01*
X371298Y458470D01*
X372110D01*
X882650Y254040D02*
X895390Y241300D01*
X944880D01*
X975360Y39370D02*
Y210820D01*
X944880Y241300D02*
X975360Y210820D01*
X847090Y40640D02*
X848360Y39370D01*
X847090Y40640D02*
Y91440D01*
X489999Y162781D02*
X528320Y124460D01*
X542290D01*
X311190Y266700D02*
X386080D01*
X298450Y279440D02*
X311190Y266700D01*
X386959Y265821D02*
X486591Y166189D01*
X386080Y266700D02*
X386959Y265821D01*
X173080Y143870D02*
X248285Y219075D01*
X173080Y102346D02*
Y143870D01*
Y102346D02*
X186526Y88900D01*
X286760Y545130D02*
X298450Y533440D01*
X268208Y545130D02*
X286760D01*
X665100Y204090D02*
X828788Y367778D01*
X894788D01*
X665100Y46750D02*
Y204090D01*
X894788Y367778D02*
X908050Y381040D01*
X132088Y104131D02*
X208280Y27940D01*
X366890D01*
X385700Y46750D01*
X132088Y104131D02*
Y133546D01*
X99060Y217170D02*
X161290Y279400D01*
X99060Y166574D02*
Y217170D01*
X161290Y279400D02*
X222250D01*
X99060Y166574D02*
X132088Y133546D01*
X349250Y318175D02*
X412585D01*
X563500Y167260D01*
X349250Y318175D02*
X349250D01*
X563500Y46750D02*
Y167260D01*
X290306Y318175D02*
X349250D01*
X273050Y304840D02*
X275412Y304814D01*
X276651D01*
X290306Y318175D01*
X896620Y208342D02*
Y217210D01*
X896360Y198398D02*
X896620Y198138D01*
X896360Y208082D02*
X896620Y208342D01*
X863600Y113030D02*
X896620Y146050D01*
X852170Y113030D02*
X863600D01*
X896620Y146050D02*
Y198138D01*
X896360Y198398D02*
Y208082D01*
X896620Y217210D02*
X908050Y228640D01*
X538100Y46750D02*
Y94360D01*
X328930Y187960D02*
X444500D01*
X538100Y94360D01*
X311110Y241300D02*
X375920D01*
X298450Y228640D02*
X311110Y241300D01*
X403860Y140970D02*
X461900Y82930D01*
X355600Y140970D02*
X403860D01*
X309880Y166370D02*
X330200D01*
X461900Y46750D02*
Y82930D01*
X330200Y166370D02*
X355600Y140970D01*
X300990Y175260D02*
X309880Y166370D01*
X300990Y175260D02*
Y184150D01*
X273050Y177840D02*
X298450Y203240D01*
X273050Y167640D02*
Y177840D01*
X307340Y133350D02*
X324500D01*
X411100Y46750D01*
X273050Y167640D02*
X307340Y133350D01*
D47*
X600710Y257810D02*
X657860D01*
X648970Y377190D02*
Y402590D01*
Y702310D01*
X565150Y293370D02*
X648970Y377190D01*
X797560Y39370D02*
Y96520D01*
X565150Y293370D02*
X600710Y257810D01*
X422910Y928370D02*
X648970Y702310D01*
X346333Y665800D02*
X352167D01*
X362315Y655651D01*
X344883Y664349D02*
X346333Y665800D01*
X243840Y928370D02*
X422910D01*
X336185Y655652D02*
X344883Y664349D01*
X362315Y579452D02*
Y655651D01*
Y655652D01*
X370237Y571530D02*
X480030D01*
X362315Y579452D02*
X370237Y571530D01*
X336185Y594028D02*
Y655652D01*
X267814Y571530D02*
X313687D01*
X336185Y594028D01*
X241300Y925830D02*
X243840Y928370D01*
X203200Y572770D02*
X266574D01*
X267814Y571530D01*
X480030D02*
X648970Y402590D01*
X248920Y74930D02*
X262890Y88900D01*
X236460Y46750D02*
X334900D01*
X62230Y431800D02*
X203200Y572770D01*
X62230Y180340D02*
Y431800D01*
X208280Y74930D02*
X248920D01*
X208280D02*
X236460Y46750D01*
X173990Y74930D02*
X208280D01*
X191770Y651510D02*
X383540Y843280D01*
X158750Y651510D02*
X191770D01*
D48*
X298450Y609640D02*
D03*
X882650Y482640D02*
D03*
Y431840D02*
D03*
Y304840D02*
D03*
Y330240D02*
D03*
Y254040D02*
D03*
X298450Y457240D02*
D03*
X908050Y406440D02*
D03*
X273050Y203240D02*
D03*
Y228640D02*
D03*
X298450D02*
D03*
X273050Y254040D02*
D03*
X298450D02*
D03*
X273050Y279440D02*
D03*
X298450D02*
D03*
X273050Y304840D02*
D03*
X298450D02*
D03*
X273050Y330240D02*
D03*
X298450D02*
D03*
X273050Y355640D02*
D03*
X298450D02*
D03*
X273050Y381040D02*
D03*
X298450D02*
D03*
X273050Y406440D02*
D03*
X298450D02*
D03*
X273050Y431840D02*
D03*
X298450D02*
D03*
X273050Y457240D02*
D03*
Y482640D02*
D03*
X298450D02*
D03*
X273050Y508040D02*
D03*
X298450D02*
D03*
X273050Y533440D02*
D03*
X298450D02*
D03*
X273050Y558840D02*
D03*
X298450D02*
D03*
X273050Y584240D02*
D03*
X298450D02*
D03*
X273050Y609640D02*
D03*
Y635040D02*
D03*
X298450D02*
D03*
X273050Y660440D02*
D03*
X298450Y203240D02*
D03*
X882650D02*
D03*
Y228640D02*
D03*
X908050D02*
D03*
Y254040D02*
D03*
X882650Y279440D02*
D03*
X908050D02*
D03*
Y304840D02*
D03*
Y330240D02*
D03*
X882650Y355640D02*
D03*
X908050D02*
D03*
X882650Y381040D02*
D03*
X908050D02*
D03*
X882650Y406440D02*
D03*
X908050Y431840D02*
D03*
X882650Y457240D02*
D03*
X908050D02*
D03*
Y482640D02*
D03*
X882650Y508040D02*
D03*
X908050D02*
D03*
X882650Y533440D02*
D03*
X908050D02*
D03*
X882650Y558840D02*
D03*
X908050D02*
D03*
X882650Y584240D02*
D03*
X908050D02*
D03*
X882650Y609640D02*
D03*
X908050D02*
D03*
X882650Y635040D02*
D03*
X908050D02*
D03*
X882650Y660440D02*
D03*
X908050Y203240D02*
D03*
D49*
X204470Y198120D02*
D03*
Y595620D02*
D03*
X29470D02*
D03*
Y198120D02*
D03*
D50*
X744220Y142240D02*
D03*
X262890Y130810D02*
D03*
X113490Y840470D02*
D03*
X744220Y116840D02*
D03*
Y91440D02*
D03*
X113490Y785670D02*
D03*
X85090Y826770D02*
D03*
X186690Y130810D02*
D03*
X161290D02*
D03*
X237490D02*
D03*
X212090D02*
D03*
X113490Y867870D02*
D03*
Y813070D02*
D03*
X85090Y854170D02*
D03*
Y881570D02*
D03*
Y799370D02*
D03*
D51*
X512700Y46750D02*
D03*
X334900D02*
D03*
X360300D02*
D03*
X588900D02*
D03*
X487300D02*
D03*
X385700D02*
D03*
X563500D02*
D03*
X639700D02*
D03*
X538100D02*
D03*
X436500D02*
D03*
X461900D02*
D03*
X614300D02*
D03*
X411100D02*
D03*
D52*
X831850Y431840D02*
D03*
X349250Y650240D02*
D03*
Y624840D02*
D03*
Y599440D02*
D03*
Y574040D02*
D03*
Y548640D02*
D03*
Y523240D02*
D03*
Y497840D02*
D03*
Y472440D02*
D03*
Y447040D02*
D03*
X831850Y203240D02*
D03*
Y228640D02*
D03*
Y254040D02*
D03*
Y279440D02*
D03*
Y304840D02*
D03*
X349250Y381040D02*
D03*
Y355640D02*
D03*
Y330240D02*
D03*
Y304840D02*
D03*
Y279440D02*
D03*
Y254040D02*
D03*
Y228640D02*
D03*
X831850Y381040D02*
D03*
Y406440D02*
D03*
Y457240D02*
D03*
Y482640D02*
D03*
Y508040D02*
D03*
Y533440D02*
D03*
D53*
X882650Y431840D02*
D03*
X383540Y843280D02*
D03*
X509270Y935990D02*
D03*
X158750Y651510D02*
D03*
D54*
X744220Y66040D02*
D03*
X113490Y895270D02*
D03*
D55*
X288290Y130810D02*
D03*
D56*
X831850Y698540D02*
D03*
X349250Y685840D02*
D03*
X501650Y177840D02*
D03*
D57*
X349250Y421640D02*
D03*
X831850Y330240D02*
D03*
X349250Y203240D02*
D03*
X831850Y558840D02*
D03*
D58*
X298450Y660440D02*
D03*
X908050D02*
D03*
D59*
X665100Y46750D02*
D03*
D60*
X99290Y965370D02*
D03*
Y715470D02*
D03*
D61*
X657860Y257810D02*
D03*
X279190Y59290D02*
D03*
X648970Y402590D02*
D03*
X565150Y293370D02*
D03*
X795020Y99060D02*
D03*
X241300Y925830D02*
D03*
X262890Y88900D02*
D03*
X62230Y180340D02*
D03*
X173990Y74930D02*
D03*
X744220Y66040D02*
D03*
X113490Y895270D02*
D03*
Y840470D02*
D03*
X736600Y462280D02*
D03*
X697230Y259080D02*
D03*
X490060Y598170D02*
D03*
X414090Y533440D02*
D03*
X511810Y331470D02*
D03*
X288290Y130810D02*
D03*
X949960Y39370D02*
D03*
X822960D02*
D03*
X609720Y129540D02*
D03*
X335280Y90050D02*
D03*
X360300Y46750D02*
D03*
X321310Y896620D02*
D03*
X186690Y830580D02*
D03*
X173990Y880110D02*
D03*
X179070Y739140D02*
D03*
X30950Y633730D02*
D03*
X29470Y595620D02*
D03*
Y198120D02*
D03*
X873125Y102870D02*
D03*
X927100D02*
D03*
X372110Y458470D02*
D03*
X542290Y124460D02*
D03*
X186690Y88900D02*
D03*
X222250Y279400D02*
D03*
X852170Y113030D02*
D03*
X328930Y187960D02*
D03*
X375920Y241300D02*
D03*
X300990Y184150D02*
D03*
X882650Y228640D02*
D03*
X814070Y209550D02*
D03*
X682900Y65680D02*
D03*
M02*
