G04*
G04 #@! TF.GenerationSoftware,Altium Limited,Altium Designer,25.8.1 (18)*
G04*
G04 Layer_Color=16711935*
%FSLAX44Y44*%
%MOMM*%
G71*
G04*
G04 #@! TF.SameCoordinates,774A44D5-1D39-439F-A150-2D3F1A80F4B5*
G04*
G04*
G04 #@! TF.FilePolarity,Negative*
G04*
G01*
G75*
%ADD27C,1.7332*%
%ADD28C,2.2032*%
%ADD29C,1.7532*%
%ADD30C,1.5700*%
%ADD31C,1.8532*%
%ADD32C,1.8082*%
%ADD33C,1.7272*%
%ADD34R,1.7532X1.7532*%
%ADD35R,1.7532X1.7532*%
%ADD36R,1.5700X1.5700*%
%ADD37C,3.2032*%
%ADD38R,1.8082X1.8082*%
%ADD39R,1.7332X1.7332*%
G04:AMPARAMS|DCode=40|XSize=1.8532mm|YSize=1.8532mm|CornerRadius=0.5141mm|HoleSize=0mm|Usage=FLASHONLY|Rotation=0.000|XOffset=0mm|YOffset=0mm|HoleType=Round|Shape=RoundedRectangle|*
%AMROUNDEDRECTD40*
21,1,1.8532,0.8250,0,0,0.0*
21,1,0.8250,1.8532,0,0,0.0*
1,1,1.0282,0.4125,-0.4125*
1,1,1.0282,-0.4125,-0.4125*
1,1,1.0282,-0.4125,0.4125*
1,1,1.0282,0.4125,0.4125*
%
%ADD40ROUNDEDRECTD40*%
%ADD41C,3.9032*%
%ADD42C,0.8032*%
%ADD62C,0.5032*%
D27*
X298450Y609640D02*
D03*
X882650Y482640D02*
D03*
Y431840D02*
D03*
Y304840D02*
D03*
Y330240D02*
D03*
Y254040D02*
D03*
X298450Y457240D02*
D03*
X908050Y406440D02*
D03*
X273050Y203240D02*
D03*
Y228640D02*
D03*
X298450D02*
D03*
X273050Y254040D02*
D03*
X298450D02*
D03*
X273050Y279440D02*
D03*
X298450D02*
D03*
X273050Y304840D02*
D03*
X298450D02*
D03*
X273050Y330240D02*
D03*
X298450D02*
D03*
X273050Y355640D02*
D03*
X298450D02*
D03*
X273050Y381040D02*
D03*
X298450D02*
D03*
X273050Y406440D02*
D03*
X298450D02*
D03*
X273050Y431840D02*
D03*
X298450D02*
D03*
X273050Y457240D02*
D03*
Y482640D02*
D03*
X298450D02*
D03*
X273050Y508040D02*
D03*
X298450D02*
D03*
X273050Y533440D02*
D03*
X298450D02*
D03*
X273050Y558840D02*
D03*
X298450D02*
D03*
X273050Y584240D02*
D03*
X298450D02*
D03*
X273050Y609640D02*
D03*
Y635040D02*
D03*
X298450D02*
D03*
X273050Y660440D02*
D03*
X298450Y203240D02*
D03*
X882650D02*
D03*
Y228640D02*
D03*
X908050D02*
D03*
Y254040D02*
D03*
X882650Y279440D02*
D03*
X908050D02*
D03*
Y304840D02*
D03*
Y330240D02*
D03*
X882650Y355640D02*
D03*
X908050D02*
D03*
X882650Y381040D02*
D03*
X908050D02*
D03*
X882650Y406440D02*
D03*
X908050Y431840D02*
D03*
X882650Y457240D02*
D03*
X908050D02*
D03*
Y482640D02*
D03*
X882650Y508040D02*
D03*
X908050D02*
D03*
X882650Y533440D02*
D03*
X908050D02*
D03*
X882650Y558840D02*
D03*
X908050D02*
D03*
X882650Y584240D02*
D03*
X908050D02*
D03*
X882650Y609640D02*
D03*
X908050D02*
D03*
X882650Y635040D02*
D03*
X908050D02*
D03*
X882650Y660440D02*
D03*
X908050Y203240D02*
D03*
D28*
X204470Y198120D02*
D03*
Y595620D02*
D03*
X29470D02*
D03*
Y198120D02*
D03*
D29*
X744220Y142240D02*
D03*
X262890Y130810D02*
D03*
X113490Y840470D02*
D03*
X744220Y116840D02*
D03*
Y91440D02*
D03*
X113490Y785670D02*
D03*
X85090Y826770D02*
D03*
X186690Y130810D02*
D03*
X161290D02*
D03*
X237490D02*
D03*
X212090D02*
D03*
X113490Y867870D02*
D03*
Y813070D02*
D03*
X85090Y854170D02*
D03*
Y881570D02*
D03*
Y799370D02*
D03*
D30*
X797560Y39370D02*
D03*
X822960D02*
D03*
X949960D02*
D03*
X848360D02*
D03*
X873760D02*
D03*
X924560D02*
D03*
X899160D02*
D03*
D31*
X512700Y46750D02*
D03*
X334900D02*
D03*
X360300D02*
D03*
X588900D02*
D03*
X487300D02*
D03*
X385700D02*
D03*
X563500D02*
D03*
X639700D02*
D03*
X538100D02*
D03*
X436500D02*
D03*
X461900D02*
D03*
X614300D02*
D03*
X411100D02*
D03*
D32*
X831850Y431840D02*
D03*
X349250Y650240D02*
D03*
Y624840D02*
D03*
Y599440D02*
D03*
Y574040D02*
D03*
Y548640D02*
D03*
Y523240D02*
D03*
Y497840D02*
D03*
Y472440D02*
D03*
Y447040D02*
D03*
X831850Y203240D02*
D03*
Y228640D02*
D03*
Y254040D02*
D03*
Y279440D02*
D03*
Y304840D02*
D03*
X349250Y381040D02*
D03*
Y355640D02*
D03*
Y330240D02*
D03*
Y304840D02*
D03*
Y279440D02*
D03*
Y254040D02*
D03*
Y228640D02*
D03*
X831850Y381040D02*
D03*
Y406440D02*
D03*
Y457240D02*
D03*
Y482640D02*
D03*
Y508040D02*
D03*
Y533440D02*
D03*
D33*
X882650Y431840D02*
D03*
X383540Y843280D02*
D03*
X509270Y935990D02*
D03*
X158750Y651510D02*
D03*
D34*
X744220Y66040D02*
D03*
X113490Y895270D02*
D03*
D35*
X288290Y130810D02*
D03*
D36*
X975360Y39370D02*
D03*
D37*
X831850Y698540D02*
D03*
X349250Y685840D02*
D03*
X501650Y177840D02*
D03*
D38*
X349250Y421640D02*
D03*
X831850Y330240D02*
D03*
X349250Y203240D02*
D03*
X831850Y558840D02*
D03*
D39*
X298450Y660440D02*
D03*
X908050D02*
D03*
D40*
X665100Y46750D02*
D03*
D41*
X99290Y965370D02*
D03*
Y715470D02*
D03*
D42*
X657860Y257810D02*
D03*
X279190Y59290D02*
D03*
X648970Y402590D02*
D03*
X565150Y293370D02*
D03*
X795020Y99060D02*
D03*
X241300Y925830D02*
D03*
X262890Y88900D02*
D03*
X62230Y180340D02*
D03*
X173990Y74930D02*
D03*
X744220Y66040D02*
D03*
X113490Y895270D02*
D03*
Y840470D02*
D03*
X736600Y462280D02*
D03*
X697230Y259080D02*
D03*
X490060Y598170D02*
D03*
X414090Y533440D02*
D03*
X511810Y331470D02*
D03*
X288290Y130810D02*
D03*
X949960Y39370D02*
D03*
X822960D02*
D03*
X609720Y129540D02*
D03*
X335280Y90050D02*
D03*
X360300Y46750D02*
D03*
X321310Y896620D02*
D03*
X186690Y830580D02*
D03*
X173990Y880110D02*
D03*
X179070Y739140D02*
D03*
X30950Y633730D02*
D03*
X29470Y595620D02*
D03*
Y198120D02*
D03*
X873125Y102870D02*
D03*
X927100D02*
D03*
X372110Y458470D02*
D03*
X542290Y124460D02*
D03*
X186690Y88900D02*
D03*
X222250Y279400D02*
D03*
X852170Y113030D02*
D03*
X328930Y187960D02*
D03*
X375920Y241300D02*
D03*
X300990Y184150D02*
D03*
X882650Y228640D02*
D03*
X814070Y209550D02*
D03*
X682900Y65680D02*
D03*
D62*
X248285Y525207D02*
X268208Y545130D01*
X248285Y219075D02*
Y525207D01*
M02*
