G04*
G04 #@! TF.GenerationSoftware,Altium Limited,Altium Designer,25.8.1 (18)*
G04*
G04 Layer_Color=65535*
%FSLAX44Y44*%
%MOMM*%
G71*
G04*
G04 #@! TF.SameCoordinates,774A44D5-1D39-439F-A150-2D3F1A80F4B5*
G04*
G04*
G04 #@! TF.FilePolarity,Positive*
G04*
G01*
G75*
%ADD10C,0.2500*%
%ADD11C,0.2000*%
%ADD12C,0.2540*%
D10*
X175240Y813998D02*
G03*
X175240Y813998I-1250J0D01*
G01*
X84050Y633730D02*
G03*
X84050Y633730I-1250J0D01*
G01*
X138340Y895220D02*
G03*
X138340Y895220I-1250J0D01*
G01*
X681150Y46550D02*
G03*
X681150Y46550I-1250J0D01*
G01*
X997210Y39370D02*
G03*
X997210Y39370I-1250J0D01*
G01*
X415340Y545540D02*
G03*
X415340Y545540I-1250J0D01*
G01*
D11*
X260570Y70040D02*
X282570D01*
X260570Y48540D02*
X282570D01*
X302690Y907370D02*
X324690D01*
X302690Y885870D02*
X324690D01*
X731520Y156840D02*
X756920D01*
Y51440D02*
Y156840D01*
X731520Y51440D02*
X756920D01*
X731520D02*
Y156840D01*
X168515Y849190D02*
X217565D01*
Y862770D01*
X168515D02*
X217565D01*
X168515Y849190D02*
Y862770D01*
X41050Y619780D02*
X60550D01*
X41050Y647680D02*
X60550D01*
X58300Y620730D02*
Y646730D01*
X130590Y686370D02*
Y994470D01*
X-55610Y686370D02*
X130590D01*
X-55610D02*
Y994470D01*
X130590D01*
X461900Y-53650D02*
X465100Y-51650D01*
X458700D02*
X461900Y-53650D01*
X465100Y-51650D02*
Y5600D01*
X458700Y-51650D02*
Y5600D01*
X512700Y-53650D02*
X515900Y-51650D01*
X509500D02*
X512700Y-53650D01*
X515900Y-51650D02*
Y5600D01*
X509500Y-51650D02*
Y5600D01*
X534900Y-51650D02*
Y5600D01*
X541300Y-51650D02*
Y5600D01*
X534900Y-51650D02*
X538100Y-53650D01*
X541300Y-51650D01*
X563500Y-53650D02*
X566700Y-51650D01*
X560300D02*
X563500Y-53650D01*
X566700Y-51650D02*
Y5600D01*
X560300Y-51650D02*
Y5600D01*
X614300Y-53650D02*
X617500Y-51650D01*
X611100D02*
X614300Y-53650D01*
X617500Y-51650D02*
Y5600D01*
X611100Y-51650D02*
Y5600D01*
X679300D02*
Y32500D01*
X320700Y5600D02*
X679300D01*
X320700D02*
Y32500D01*
X679300D01*
X661900Y-51650D02*
Y5600D01*
X668300Y-51650D02*
Y5600D01*
X661900Y-51650D02*
X665100Y-53650D01*
X668300Y-51650D01*
X636500D02*
Y5600D01*
X642900Y-51650D02*
Y5600D01*
X636500Y-51650D02*
X639700Y-53650D01*
X642900Y-51650D01*
X585700D02*
Y5600D01*
X592100Y-51650D02*
Y5600D01*
X585700Y-51650D02*
X588900Y-53650D01*
X592100Y-51650D01*
X484100D02*
Y5600D01*
X490500Y-51650D02*
Y5600D01*
X484100Y-51650D02*
X487300Y-53650D01*
X490500Y-51650D01*
X433300D02*
Y5600D01*
X439700Y-51650D02*
Y5600D01*
X433300Y-51650D02*
X436500Y-53650D01*
X439700Y-51650D01*
X411100Y-53650D02*
X414300Y-51650D01*
X407900D02*
X411100Y-53650D01*
X414300Y-51650D02*
Y5600D01*
X407900Y-51650D02*
Y5600D01*
X385700Y-53650D02*
X388900Y-51650D01*
X382500D02*
X385700Y-53650D01*
X388900Y-51650D02*
Y5600D01*
X382500Y-51650D02*
Y5600D01*
X331700Y-51650D02*
Y5600D01*
X338100Y-51650D02*
Y5600D01*
X331700Y-51650D02*
X334900Y-53650D01*
X338100Y-51650D01*
X357100D02*
Y5600D01*
X363500Y-51650D02*
Y5600D01*
X357100Y-51650D02*
X360300Y-53650D01*
X363500Y-51650D01*
X346030Y71550D02*
Y93550D01*
X324530Y71550D02*
Y93550D01*
X743350Y471780D02*
Y472780D01*
X729850Y471780D02*
Y472780D01*
X782960Y26020D02*
X989960D01*
X782960D02*
Y52720D01*
X989960D01*
Y26020D02*
Y52720D01*
X479560Y604920D02*
X480560D01*
X479560Y591420D02*
X480560D01*
X429515Y543065D02*
X464565D01*
Y478015D02*
Y543065D01*
X429515Y478015D02*
X464565D01*
X429515D02*
Y543065D01*
X159159Y728140D02*
X183741D01*
X159159Y750140D02*
X183741D01*
X168430Y716040D02*
X177180D01*
Y686040D02*
Y693290D01*
Y708790D02*
Y716040D01*
X168430Y686040D02*
X177180D01*
X163180Y699290D02*
Y702790D01*
X146690Y118110D02*
X302890D01*
Y143510D01*
X146690D02*
X302890D01*
X146690Y118110D02*
Y143510D01*
X508430Y320720D02*
X530430D01*
X508430Y342220D02*
X530430D01*
X606220Y140290D02*
X628220D01*
X606220Y118790D02*
X628220D01*
D12*
X420367Y801365D02*
X410210D01*
Y793747D01*
X415288D01*
X410210D01*
Y786130D01*
X425445Y801365D02*
Y788669D01*
X427984Y786130D01*
X433063D01*
X435602Y788669D01*
Y801365D01*
X450837Y798826D02*
X448298Y801365D01*
X443219D01*
X440680Y798826D01*
Y796287D01*
X443219Y793747D01*
X448298D01*
X450837Y791208D01*
Y788669D01*
X448298Y786130D01*
X443219D01*
X440680Y788669D01*
X466072Y801365D02*
X455915D01*
Y786130D01*
X466072D01*
X455915Y793747D02*
X460994D01*
X471150Y801365D02*
Y786130D01*
X478768D01*
X481307Y788669D01*
Y798826D01*
X478768Y801365D01*
X471150D01*
X124455Y447040D02*
X109220D01*
Y436883D01*
Y431805D02*
X124455D01*
X119377Y426727D01*
X124455Y421648D01*
X109220D01*
Y406413D02*
Y416570D01*
X119377Y406413D01*
X121916D01*
X124455Y408952D01*
Y414031D01*
X121916Y416570D01*
X124455Y391178D02*
Y401335D01*
X116838D01*
X119377Y396256D01*
Y393717D01*
X116838Y391178D01*
X111759D01*
X109220Y393717D01*
Y398796D01*
X111759Y401335D01*
Y386100D02*
X109220Y383560D01*
Y378482D01*
X111759Y375943D01*
X121916D01*
X124455Y378482D01*
Y383560D01*
X121916Y386100D01*
X119377D01*
X116838Y383560D01*
Y375943D01*
X124455Y360708D02*
X121916Y365786D01*
X116838Y370865D01*
X111759D01*
X109220Y368326D01*
Y363247D01*
X111759Y360708D01*
X114298D01*
X116838Y363247D01*
Y370865D01*
X121916Y345473D02*
X124455Y348012D01*
Y353090D01*
X121916Y355630D01*
X119377D01*
X116838Y353090D01*
Y348012D01*
X114298Y345473D01*
X111759D01*
X109220Y348012D01*
Y353090D01*
X111759Y355630D01*
X591820Y890265D02*
Y875030D01*
X599437D01*
X601977Y877569D01*
Y887726D01*
X599437Y890265D01*
X591820D01*
X617212D02*
X607055D01*
Y875030D01*
X617212D01*
X607055Y882647D02*
X612133D01*
X632447Y887726D02*
X629908Y890265D01*
X624829D01*
X622290Y887726D01*
Y885187D01*
X624829Y882647D01*
X629908D01*
X632447Y880108D01*
Y877569D01*
X629908Y875030D01*
X624829D01*
X622290Y877569D01*
X637525Y890265D02*
X642604D01*
X640064D01*
Y875030D01*
X637525D01*
X642604D01*
X660378Y887726D02*
X657839Y890265D01*
X652760D01*
X650221Y887726D01*
Y877569D01*
X652760Y875030D01*
X657839D01*
X660378Y877569D01*
Y882647D01*
X655300D01*
X665456Y875030D02*
Y890265D01*
X675613Y875030D01*
Y890265D01*
X690848D02*
X680691D01*
Y875030D01*
X690848D01*
X680691Y882647D02*
X685770D01*
X695926Y890265D02*
Y875030D01*
X703544D01*
X706083Y877569D01*
Y887726D01*
X703544Y890265D01*
X695926D01*
X726396D02*
Y875030D01*
X734014D01*
X736553Y877569D01*
Y880108D01*
X734014Y882647D01*
X726396D01*
X734014D01*
X736553Y885187D01*
Y887726D01*
X734014Y890265D01*
X726396D01*
X741631D02*
Y887726D01*
X746710Y882647D01*
X751788Y887726D01*
Y890265D01*
X746710Y882647D02*
Y875030D01*
X782258Y887726D02*
X779719Y890265D01*
X774641D01*
X772102Y887726D01*
Y885187D01*
X774641Y882647D01*
X779719D01*
X782258Y880108D01*
Y877569D01*
X779719Y875030D01*
X774641D01*
X772102Y877569D01*
X787337Y890265D02*
Y877569D01*
X789876Y875030D01*
X794954D01*
X797494Y877569D01*
Y890265D01*
X802572Y875030D02*
Y890265D01*
X812729Y875030D01*
Y890265D01*
X817807Y875030D02*
Y890265D01*
X827964Y875030D01*
Y890265D01*
X833042D02*
Y887726D01*
X838120Y882647D01*
X843199Y887726D01*
Y890265D01*
X838120Y882647D02*
Y875030D01*
X863512Y890265D02*
Y875030D01*
X873669D01*
X878747Y890265D02*
X883826D01*
X881286D01*
Y875030D01*
X878747D01*
X883826D01*
X891443D02*
Y890265D01*
X901600Y875030D01*
Y890265D01*
X695960Y939795D02*
Y924560D01*
X703577D01*
X706117Y927099D01*
Y929638D01*
X703577Y932178D01*
X695960D01*
X703577D01*
X706117Y934717D01*
Y937256D01*
X703577Y939795D01*
X695960D01*
X711195D02*
Y924560D01*
X721352D01*
X726430D02*
Y934717D01*
X731508Y939795D01*
X736587Y934717D01*
Y924560D01*
Y932178D01*
X726430D01*
X751822Y937256D02*
X749283Y939795D01*
X744204D01*
X741665Y937256D01*
Y927099D01*
X744204Y924560D01*
X749283D01*
X751822Y927099D01*
X756900Y939795D02*
Y924560D01*
Y929638D01*
X767057Y939795D01*
X759439Y932178D01*
X767057Y924560D01*
X787370Y939795D02*
Y924560D01*
X794988D01*
X797527Y927099D01*
Y929638D01*
X794988Y932178D01*
X787370D01*
X794988D01*
X797527Y934717D01*
Y937256D01*
X794988Y939795D01*
X787370D01*
X810223D02*
X805145D01*
X802606Y937256D01*
Y927099D01*
X805145Y924560D01*
X810223D01*
X812762Y927099D01*
Y937256D01*
X810223Y939795D01*
X817841D02*
X827997Y924560D01*
Y939795D02*
X817841Y924560D01*
X848311Y939795D02*
Y929638D01*
X853389Y924560D01*
X858467Y929638D01*
Y939795D01*
X873702Y924560D02*
X863546D01*
X873702Y934717D01*
Y937256D01*
X871163Y939795D01*
X866085D01*
X863546Y937256D01*
X878781Y924560D02*
Y927099D01*
X881320D01*
Y924560D01*
X878781D01*
X901634D02*
X891477D01*
X901634Y934717D01*
Y937256D01*
X899094Y939795D01*
X894016D01*
X891477Y937256D01*
X270301Y38968D02*
X267762Y41508D01*
X262683D01*
X260144Y38968D01*
Y28812D01*
X262683Y26272D01*
X267762D01*
X270301Y28812D01*
X285536Y41508D02*
X275379D01*
Y33890D01*
X280457Y36429D01*
X282997D01*
X285536Y33890D01*
Y28812D01*
X282997Y26272D01*
X277918D01*
X275379Y28812D01*
X311151Y875028D02*
X308612Y877568D01*
X303533D01*
X300994Y875028D01*
Y864872D01*
X303533Y862333D01*
X308612D01*
X311151Y864872D01*
X316229Y875028D02*
X318768Y877568D01*
X323847D01*
X326386Y875028D01*
Y872489D01*
X323847Y869950D01*
X326386Y867411D01*
Y864872D01*
X323847Y862333D01*
X318768D01*
X316229Y864872D01*
Y867411D01*
X318768Y869950D01*
X316229Y872489D01*
Y875028D01*
X318768Y869950D02*
X323847D01*
X721376Y166373D02*
Y181607D01*
X731533Y166373D01*
Y181607D01*
X746768D02*
X736611D01*
Y166373D01*
X746768D01*
X736611Y173990D02*
X741690D01*
X759464Y181607D02*
X754386D01*
X751847Y179068D01*
Y168912D01*
X754386Y166373D01*
X759464D01*
X762003Y168912D01*
Y179068D01*
X759464Y181607D01*
X767082Y173990D02*
X777238D01*
X782317Y166373D02*
Y181607D01*
X787395Y176529D01*
X792473Y181607D01*
Y166373D01*
X797552Y179068D02*
X800091Y181607D01*
X805169D01*
X807709Y179068D01*
Y176529D01*
X805169Y173990D01*
X807709Y171451D01*
Y168912D01*
X805169Y166373D01*
X800091D01*
X797552Y168912D01*
Y171451D01*
X800091Y173990D01*
X797552Y176529D01*
Y179068D01*
X800091Y173990D02*
X805169D01*
X812787Y166373D02*
Y181607D01*
X822944Y166373D01*
Y181607D01*
X182883Y918208D02*
X180344Y920748D01*
X175266D01*
X172727Y918208D01*
Y908052D01*
X175266Y905512D01*
X180344D01*
X182883Y908052D01*
X187962Y905512D02*
Y915669D01*
X193040Y920748D01*
X198118Y915669D01*
Y905512D01*
Y913130D01*
X187962D01*
X203197Y905512D02*
Y920748D01*
X213353Y905512D01*
Y920748D01*
X478815Y476253D02*
Y486409D01*
X483893Y491488D01*
X488971Y486409D01*
Y476253D01*
Y483870D01*
X478815D01*
X494050Y476253D02*
Y491488D01*
X499128Y486409D01*
X504207Y491488D01*
Y476253D01*
X519441Y488948D02*
X516902Y491488D01*
X511824D01*
X509285Y488948D01*
Y486409D01*
X511824Y483870D01*
X516902D01*
X519441Y481331D01*
Y478792D01*
X516902Y476253D01*
X511824D01*
X509285Y478792D01*
X524520Y476253D02*
X529598D01*
X527059D01*
Y491488D01*
X524520Y488948D01*
X537216Y476253D02*
X542294D01*
X539755D01*
Y491488D01*
X537216Y488948D01*
X549912Y476253D02*
X554990D01*
X552451D01*
Y491488D01*
X549912Y488948D01*
X562607Y491488D02*
X572764D01*
Y488948D01*
X562607Y478792D01*
Y476253D01*
X577843Y483870D02*
X587999D01*
X593078Y488948D02*
X595617Y491488D01*
X600695D01*
X603234Y488948D01*
Y486409D01*
X600695Y483870D01*
X598156D01*
X600695D01*
X603234Y481331D01*
Y478792D01*
X600695Y476253D01*
X595617D01*
X593078Y478792D01*
X608313Y476253D02*
Y478792D01*
X610852D01*
Y476253D01*
X608313D01*
X621009Y488948D02*
X623548Y491488D01*
X628626D01*
X631165Y488948D01*
Y486409D01*
X628626Y483870D01*
X626087D01*
X628626D01*
X631165Y481331D01*
Y478792D01*
X628626Y476253D01*
X623548D01*
X621009Y478792D01*
X158754Y755652D02*
Y770888D01*
X166372D01*
X168911Y768348D01*
Y763270D01*
X166372Y760731D01*
X158754D01*
X163832D02*
X168911Y755652D01*
X173989Y768348D02*
X176528Y770888D01*
X181607D01*
X184146Y768348D01*
Y765809D01*
X181607Y763270D01*
X179067D01*
X181607D01*
X184146Y760731D01*
Y758192D01*
X181607Y755652D01*
X176528D01*
X173989Y758192D01*
X191777Y701042D02*
Y716277D01*
X196855Y711199D01*
X201933Y716277D01*
Y701042D01*
X214629Y716277D02*
X209551D01*
X207012Y713738D01*
Y703582D01*
X209551Y701042D01*
X214629D01*
X217168Y703582D01*
Y713738D01*
X214629Y716277D01*
X232403Y713738D02*
X229864Y716277D01*
X224786D01*
X222247Y713738D01*
Y711199D01*
X224786Y708660D01*
X229864D01*
X232403Y706121D01*
Y703582D01*
X229864Y701042D01*
X224786D01*
X222247Y703582D01*
X519445Y26667D02*
X524523D01*
X521984D01*
Y11432D01*
X519445D01*
X524523D01*
X532141Y26667D02*
Y11432D01*
X542297D01*
X547376Y26667D02*
X552454D01*
X549915D01*
Y11432D01*
X547376D01*
X552454D01*
X560072Y13972D02*
X562611Y11432D01*
X567689D01*
X570228Y13972D01*
Y24128D01*
X567689Y26667D01*
X562611D01*
X560072Y24128D01*
Y21589D01*
X562611Y19050D01*
X570228D01*
X575307Y24128D02*
X577846Y26667D01*
X582924D01*
X585463Y24128D01*
Y21589D01*
X582924Y19050D01*
X580385D01*
X582924D01*
X585463Y16511D01*
Y13972D01*
X582924Y11432D01*
X577846D01*
X575307Y13972D01*
X598159Y11432D02*
Y26667D01*
X590542Y19050D01*
X600699D01*
X605777Y11432D02*
X610855D01*
X608316D01*
Y26667D01*
X605777Y24128D01*
X39372Y819157D02*
X54608D01*
Y826774D01*
X52068Y829313D01*
X41912D01*
X39372Y826774D01*
Y819157D01*
Y834392D02*
X54608D01*
Y842009D01*
X52068Y844548D01*
X49529D01*
X46990Y842009D01*
Y834392D01*
Y842009D01*
X44451Y844548D01*
X41912D01*
X39372Y842009D01*
Y834392D01*
X52068Y849627D02*
X54608Y852166D01*
Y857244D01*
X52068Y859783D01*
X41912D01*
X39372Y857244D01*
Y852166D01*
X41912Y849627D01*
X44451D01*
X46990Y852166D01*
Y859783D01*
X170198Y96523D02*
Y111757D01*
X175276Y106679D01*
X180354Y111757D01*
Y96523D01*
X185433D02*
X190511D01*
X187972D01*
Y106679D01*
X185433D01*
X208285D02*
X200668D01*
X198129Y104140D01*
Y99062D01*
X200668Y96523D01*
X208285D01*
X213364Y106679D02*
Y96523D01*
Y101601D01*
X215903Y104140D01*
X218442Y106679D01*
X220981D01*
X231138Y96523D02*
X236216D01*
X238755Y99062D01*
Y104140D01*
X236216Y106679D01*
X231138D01*
X228599Y104140D01*
Y99062D01*
X231138Y96523D01*
X253991Y109218D02*
X251451Y111757D01*
X246373D01*
X243834Y109218D01*
Y106679D01*
X246373Y104140D01*
X251451D01*
X253991Y101601D01*
Y99062D01*
X251451Y96523D01*
X246373D01*
X243834Y99062D01*
X259069Y111757D02*
Y96523D01*
X266686D01*
X269226Y99062D01*
Y109218D01*
X266686Y111757D01*
X259069D01*
X274304Y96523D02*
X279382D01*
X276843D01*
Y111757D01*
X274304Y109218D01*
X831866Y6352D02*
Y21588D01*
X836945Y16509D01*
X842023Y21588D01*
Y6352D01*
X847102D02*
Y21588D01*
X854719D01*
X857258Y19048D01*
Y13970D01*
X854719Y11431D01*
X847102D01*
X862337Y21588D02*
Y8892D01*
X864876Y6352D01*
X869954D01*
X872493Y8892D01*
Y21588D01*
X887728D02*
X882650Y19048D01*
X877572Y13970D01*
Y8892D01*
X880111Y6352D01*
X885189D01*
X887728Y8892D01*
Y11431D01*
X885189Y13970D01*
X877572D01*
X892807Y19048D02*
X895346Y21588D01*
X900424D01*
X902963Y19048D01*
Y8892D01*
X900424Y6352D01*
X895346D01*
X892807Y8892D01*
Y19048D01*
X918198Y21588D02*
X908042D01*
Y13970D01*
X913120Y16509D01*
X915659D01*
X918198Y13970D01*
Y8892D01*
X915659Y6352D01*
X910581D01*
X908042Y8892D01*
X923277Y19048D02*
X925816Y21588D01*
X930894D01*
X933434Y19048D01*
Y8892D01*
X930894Y6352D01*
X925816D01*
X923277Y8892D01*
Y19048D01*
X306072Y82551D02*
X303533Y80012D01*
Y74933D01*
X306072Y72394D01*
X316228D01*
X318768Y74933D01*
Y80012D01*
X316228Y82551D01*
X303533Y87629D02*
Y97786D01*
X306072D01*
X316228Y87629D01*
X318768D01*
X517141Y363470D02*
X514602Y366009D01*
X509523D01*
X506984Y363470D01*
Y353313D01*
X509523Y350774D01*
X514602D01*
X517141Y353313D01*
X532376Y366009D02*
X527297Y363470D01*
X522219Y358391D01*
Y353313D01*
X524758Y350774D01*
X529837D01*
X532376Y353313D01*
Y355852D01*
X529837Y358391D01*
X522219D01*
X478791Y624838D02*
X476252Y627378D01*
X471173D01*
X468634Y624838D01*
Y614682D01*
X471173Y612142D01*
X476252D01*
X478791Y614682D01*
X491487Y612142D02*
Y627378D01*
X483869Y619760D01*
X494026D01*
X614931Y161540D02*
X612392Y164079D01*
X607313D01*
X604774Y161540D01*
Y151383D01*
X607313Y148844D01*
X612392D01*
X614931Y151383D01*
X620009Y161540D02*
X622548Y164079D01*
X627627D01*
X630166Y161540D01*
Y159001D01*
X627627Y156461D01*
X625087D01*
X627627D01*
X630166Y153922D01*
Y151383D01*
X627627Y148844D01*
X622548D01*
X620009Y151383D01*
X734061Y444498D02*
X731522Y447038D01*
X726443D01*
X723904Y444498D01*
Y434342D01*
X726443Y431802D01*
X731522D01*
X734061Y434342D01*
X749296Y431802D02*
X739139D01*
X749296Y441959D01*
Y444498D01*
X746757Y447038D01*
X741678D01*
X739139Y444498D01*
X689610Y285748D02*
X687071Y288288D01*
X681992D01*
X679453Y285748D01*
Y275592D01*
X681992Y273053D01*
X687071D01*
X689610Y275592D01*
X694688Y273053D02*
X699767D01*
X697228D01*
Y288288D01*
X694688Y285748D01*
X27949Y666748D02*
X38106D01*
X33027D01*
Y651513D01*
X43184Y666748D02*
Y656591D01*
X48263Y651513D01*
X53341Y656591D01*
Y666748D01*
X68576Y664208D02*
X66037Y666748D01*
X60958D01*
X58419Y664208D01*
Y661669D01*
X60958Y659130D01*
X66037D01*
X68576Y656591D01*
Y654052D01*
X66037Y651513D01*
X60958D01*
X58419Y654052D01*
M02*
